<svg width="182" height="17" viewBox="0 0 182 17" fill="none" xmlns="http://www.w3.org/2000/svg">
<path d="M4.56523 13V2.254H0.893227V0.399999H10.5592V2.254H6.86923V13H4.56523ZM10.1201 13L14.7281 0.399999H17.3201L21.9281 13H19.4801L18.4721 10.084H13.5581L12.5321 13H10.1201ZM14.1881 8.284H17.8421L16.0061 3.046L14.1881 8.284ZM23.5511 13V0.399999H25.8551L31.7771 9.274V0.399999H34.0811V13H31.7771L25.8551 4.144V13H23.5511ZM36.5238 13V0.399999H38.8278V5.494L43.4898 0.399999H46.3338L41.6898 5.404L46.4598 13H43.6338L40.0338 7.168L38.8278 8.482V13H36.5238ZM57.8345 13.216C56.6465 13.216 55.6085 12.946 54.7205 12.406C53.8325 11.866 53.1425 11.116 52.6505 10.156C52.1585 9.184 51.9125 8.056 51.9125 6.772C51.9125 5.476 52.1645 4.336 52.6685 3.352C53.1845 2.356 53.9105 1.582 54.8465 1.03C55.7945 0.466 56.9165 0.184 58.2125 0.184C59.6885 0.184 60.9125 0.538 61.8845 1.246C62.8565 1.954 63.4865 2.932 63.7745 4.18H61.2005C61.0085 3.592 60.6605 3.136 60.1565 2.812C59.6525 2.476 59.0045 2.308 58.2125 2.308C56.9525 2.308 55.9805 2.71 55.2965 3.514C54.6125 4.306 54.2705 5.398 54.2705 6.79C54.2705 8.182 54.6065 9.262 55.2785 10.03C55.9625 10.786 56.8865 11.164 58.0505 11.164C59.1905 11.164 60.0485 10.858 60.6245 10.246C61.2125 9.622 61.5665 8.806 61.6865 7.798H58.5005V6.07H64.0085V13H61.8845L61.7045 11.344C61.2965 11.944 60.7865 12.406 60.1745 12.73C59.5625 13.054 58.7825 13.216 57.8345 13.216ZM66.2484 13V0.399999H68.5524V13H66.2484ZM70.9945 13V0.399999H75.6205C76.6285 0.399999 77.4565 0.573999 78.1045 0.922C78.7645 1.258 79.2565 1.72 79.5805 2.308C79.9045 2.884 80.0665 3.526 80.0665 4.234C80.0665 5.002 79.8625 5.704 79.4545 6.34C79.0585 6.976 78.4345 7.438 77.5825 7.726L80.1925 13H77.5465L75.2065 8.032H73.2985V13H70.9945ZM73.2985 6.34H75.4765C76.2445 6.34 76.8085 6.154 77.1685 5.782C77.5285 5.41 77.7085 4.918 77.7085 4.306C77.7085 3.706 77.5285 3.226 77.1685 2.866C76.8205 2.506 76.2505 2.326 75.4585 2.326H73.2985V6.34ZM82.2094 13V0.399999H84.5134V11.2H90.0934V13H82.2094Z" fill="#FF65C3"/>
<path d="M96.1405 13V3.2H98.2685L101.39 9.416L104.47 3.2H106.598V13H104.806V6.238L102.076 11.6H100.662L97.9325 6.238V13H96.1405ZM111.832 13.168C111.132 13.168 110.511 13.0187 109.97 12.72C109.429 12.4213 109.004 12.0013 108.696 11.46C108.388 10.9187 108.234 10.2933 108.234 9.584C108.234 8.86533 108.383 8.226 108.682 7.666C108.99 7.106 109.41 6.672 109.942 6.364C110.483 6.04667 111.118 5.888 111.846 5.888C112.527 5.888 113.129 6.03733 113.652 6.336C114.175 6.63467 114.581 7.04533 114.87 7.568C115.169 8.08133 115.318 8.65533 115.318 9.29C115.318 9.39267 115.313 9.5 115.304 9.612C115.304 9.724 115.299 9.84067 115.29 9.962H110.012C110.049 10.5033 110.236 10.928 110.572 11.236C110.917 11.544 111.333 11.698 111.818 11.698C112.182 11.698 112.485 11.6187 112.728 11.46C112.98 11.292 113.167 11.0773 113.288 10.816H115.108C114.977 11.2547 114.758 11.656 114.45 12.02C114.151 12.3747 113.778 12.6547 113.33 12.86C112.891 13.0653 112.392 13.168 111.832 13.168ZM111.846 7.344C111.407 7.344 111.02 7.47 110.684 7.722C110.348 7.96467 110.133 8.338 110.04 8.842H113.498C113.47 8.38467 113.302 8.02067 112.994 7.75C112.686 7.47933 112.303 7.344 111.846 7.344ZM120.017 13.168C119.364 13.168 118.78 13.0093 118.267 12.692C117.754 12.3747 117.348 11.9407 117.049 11.39C116.75 10.8393 116.601 10.214 116.601 9.514C116.601 8.814 116.75 8.19333 117.049 7.652C117.348 7.10133 117.754 6.672 118.267 6.364C118.78 6.04667 119.364 5.888 120.017 5.888C120.54 5.888 120.997 5.986 121.389 6.182C121.781 6.378 122.098 6.65333 122.341 7.008V2.92H124.133V13H122.537L122.341 12.006C122.117 12.314 121.818 12.5847 121.445 12.818C121.081 13.0513 120.605 13.168 120.017 13.168ZM120.395 11.6C120.974 11.6 121.445 11.4087 121.809 11.026C122.182 10.634 122.369 10.1347 122.369 9.528C122.369 8.92133 122.182 8.42667 121.809 8.044C121.445 7.652 120.974 7.456 120.395 7.456C119.826 7.456 119.354 7.64733 118.981 8.03C118.608 8.41267 118.421 8.90733 118.421 9.514C118.421 10.1207 118.608 10.62 118.981 11.012C119.354 11.404 119.826 11.6 120.395 11.6ZM126.924 4.978C126.597 4.978 126.327 4.88 126.112 4.684C125.907 4.488 125.804 4.24067 125.804 3.942C125.804 3.64333 125.907 3.40067 126.112 3.214C126.327 3.018 126.597 2.92 126.924 2.92C127.251 2.92 127.517 3.018 127.722 3.214C127.937 3.40067 128.044 3.64333 128.044 3.942C128.044 4.24067 127.937 4.488 127.722 4.684C127.517 4.88 127.251 4.978 126.924 4.978ZM126.028 13V6.056H127.82V13H126.028ZM132.084 13.168C131.487 13.168 130.997 13.0747 130.614 12.888C130.232 12.692 129.947 12.4353 129.76 12.118C129.574 11.8007 129.48 11.4507 129.48 11.068C129.48 10.424 129.732 9.90133 130.236 9.5C130.74 9.09867 131.496 8.898 132.504 8.898H134.268V8.73C134.268 8.254 134.133 7.904 133.862 7.68C133.592 7.456 133.256 7.344 132.854 7.344C132.49 7.344 132.173 7.43267 131.902 7.61C131.632 7.778 131.464 8.03 131.398 8.366H129.648C129.695 7.862 129.863 7.42333 130.152 7.05C130.451 6.67667 130.834 6.392 131.3 6.196C131.767 5.99067 132.29 5.888 132.868 5.888C133.858 5.888 134.637 6.13533 135.206 6.63C135.776 7.12467 136.06 7.82467 136.06 8.73V13H134.534L134.366 11.88C134.161 12.2533 133.872 12.5613 133.498 12.804C133.134 13.0467 132.663 13.168 132.084 13.168ZM132.49 11.768C133.004 11.768 133.4 11.6 133.68 11.264C133.97 10.928 134.152 10.5127 134.226 10.018H132.7C132.224 10.018 131.884 10.1067 131.678 10.284C131.473 10.452 131.37 10.662 131.37 10.914C131.37 11.1847 131.473 11.3947 131.678 11.544C131.884 11.6933 132.154 11.768 132.49 11.768ZM145.432 13.168C144.508 13.168 143.701 12.958 143.01 12.538C142.32 12.118 141.783 11.5347 141.4 10.788C141.018 10.032 140.826 9.15467 140.826 8.156C140.826 7.148 141.022 6.26133 141.414 5.496C141.816 4.72133 142.38 4.11933 143.108 3.69C143.846 3.25133 144.718 3.032 145.726 3.032C146.874 3.032 147.826 3.30733 148.582 3.858C149.338 4.40867 149.828 5.16933 150.052 6.14H148.05C147.901 5.68267 147.63 5.328 147.238 5.076C146.846 4.81467 146.342 4.684 145.726 4.684C144.746 4.684 143.99 4.99667 143.458 5.622C142.926 6.238 142.66 7.08733 142.66 8.17C142.66 9.25267 142.922 10.0927 143.444 10.69C143.976 11.278 144.695 11.572 145.6 11.572C146.487 11.572 147.154 11.334 147.602 10.858C148.06 10.3727 148.335 9.738 148.428 8.954H145.95V7.61H150.234V13H148.582L148.442 11.712C148.125 12.1787 147.728 12.538 147.252 12.79C146.776 13.042 146.17 13.168 145.432 13.168ZM151.934 13V6.056H153.53L153.698 7.358C153.95 6.91 154.291 6.55533 154.72 6.294C155.159 6.02333 155.672 5.888 156.26 5.888V7.778H155.756C155.364 7.778 155.014 7.83867 154.706 7.96C154.398 8.08133 154.156 8.29133 153.978 8.59C153.81 8.88867 153.726 9.304 153.726 9.836V13H151.934ZM160.694 13.168C160.022 13.168 159.415 13.014 158.874 12.706C158.342 12.398 157.917 11.9733 157.6 11.432C157.292 10.8813 157.138 10.2467 157.138 9.528C157.138 8.80933 157.297 8.17933 157.614 7.638C157.931 7.08733 158.356 6.658 158.888 6.35C159.429 6.042 160.036 5.888 160.708 5.888C161.371 5.888 161.968 6.042 162.5 6.35C163.041 6.658 163.466 7.08733 163.774 7.638C164.091 8.17933 164.25 8.80933 164.25 9.528C164.25 10.2467 164.091 10.8813 163.774 11.432C163.466 11.9733 163.041 12.398 162.5 12.706C161.959 13.014 161.357 13.168 160.694 13.168ZM160.694 11.614C161.161 11.614 161.567 11.4413 161.912 11.096C162.257 10.7413 162.43 10.2187 162.43 9.528C162.43 8.83733 162.257 8.31933 161.912 7.974C161.567 7.61933 161.165 7.442 160.708 7.442C160.232 7.442 159.821 7.61933 159.476 7.974C159.14 8.31933 158.972 8.83733 158.972 9.528C158.972 10.2187 159.14 10.7413 159.476 11.096C159.821 11.4413 160.227 11.614 160.694 11.614ZM168.456 13.168C167.588 13.168 166.916 12.8973 166.44 12.356C165.974 11.8147 165.74 11.0213 165.74 9.976V6.056H167.518V9.808C167.518 10.4053 167.64 10.8627 167.882 11.18C168.125 11.4973 168.508 11.656 169.03 11.656C169.525 11.656 169.931 11.4787 170.248 11.124C170.575 10.7693 170.738 10.2747 170.738 9.64V6.056H172.53V13H170.948L170.808 11.824C170.594 12.2347 170.281 12.5613 169.87 12.804C169.469 13.0467 168.998 13.168 168.456 13.168ZM174.37 16.08V6.056H175.966L176.162 7.05C176.386 6.742 176.68 6.47133 177.044 6.238C177.417 6.00467 177.898 5.888 178.486 5.888C179.139 5.888 179.723 6.04667 180.236 6.364C180.749 6.68133 181.155 7.11533 181.454 7.666C181.753 8.21667 181.902 8.842 181.902 9.542C181.902 10.242 181.753 10.8673 181.454 11.418C181.155 11.9593 180.749 12.3887 180.236 12.706C179.723 13.014 179.139 13.168 178.486 13.168C177.963 13.168 177.506 13.07 177.114 12.874C176.722 12.678 176.405 12.4027 176.162 12.048V16.08H174.37ZM178.108 11.6C178.677 11.6 179.149 11.4087 179.522 11.026C179.895 10.6433 180.082 10.1487 180.082 9.542C180.082 8.93533 179.895 8.436 179.522 8.044C179.149 7.652 178.677 7.456 178.108 7.456C177.529 7.456 177.053 7.652 176.68 8.044C176.316 8.42667 176.134 8.92133 176.134 9.528C176.134 10.1347 176.316 10.634 176.68 11.026C177.053 11.4087 177.529 11.6 178.108 11.6Z" fill="white"/>
</svg>
